<?xml version="1.0" encoding="UTF-8"?>
<svg version="1.1" xmlns="http://www.w3.org/2000/svg" width="2048" height="829">
<path d="M0 0 C675.84 0 1351.68 0 2048 0 C2048 273.57 2048 547.14 2048 829 C1372.16 829 696.32 829 0 829 C0 555.43 0 281.86 0 0 Z " fill="#FEFEFE" transform="translate(0,0)"/>
<path d="M0 0 C0.74354736 0.65742188 1.48709473 1.31484375 2.25317383 1.9921875 C8.552059 7.59723765 14.59888986 13.41577164 20.5625 19.375 C21.88411133 20.67824219 21.88411133 20.67824219 23.23242188 22.0078125 C29.2620257 28.02406665 34.69558042 34.34186477 40 41 C41.15526817 42.39880275 42.3138068 43.79491505 43.4765625 45.1875 C48.82260801 51.64155989 53.95227251 58.02602513 58.2890625 65.21875 C59.88226532 67.80861394 61.58703969 70.2913387 63.32958984 72.78198242 C85.42192122 104.68680871 100.91509988 142.28713028 110.125 179.875 C110.38413177 180.92315887 110.38413177 180.92315887 110.64849854 181.99249268 C117.60593306 210.18832683 120.22765398 238.24814969 120.25 267.25 C120.25100708 268.16730896 120.25201416 269.08461792 120.25305176 270.02972412 C120.24137131 285.86600823 119.33412438 301.31615065 117 317 C116.8448291 318.0636377 116.6896582 319.12727539 116.52978516 320.22314453 C113.71472335 339.13657199 109.55543429 357.32987442 103.4375 375.4375 C103.04691406 376.60096451 103.04691406 376.60096451 102.6484375 377.78793335 C90.47560641 413.92094747 73.85180195 448.0862359 50.34619141 478.25244141 C49.08205903 479.89347505 47.85261121 481.55350075 46.63671875 483.23046875 C41.63990646 490.0911009 36.23533006 496.27607839 30.42773438 502.44506836 C28.82716699 504.18823075 27.28606712 505.97599827 25.7421875 507.76953125 C15.54170784 519.47831777 4.30883025 530.52894041 -8 540 C-9.13544908 540.92123899 -10.26806896 541.84597168 -11.3984375 542.7734375 C-27.3233011 555.80344975 -44.08357331 566.88557119 -62 577 C-62.79631836 577.45117188 -63.59263672 577.90234375 -64.41308594 578.3671875 C-90.92923402 593.2423747 -121.05025441 605.2403392 -150.8828125 611.54931641 C-152.42958921 611.87857722 -153.97352343 612.2212725 -155.515625 612.57177734 C-200.30186847 622.73249819 -247.68796036 625.02642492 -293 617 C-294.2262207 616.78569336 -295.45244141 616.57138672 -296.71582031 616.35058594 C-343.89668435 607.86321919 -390.35378047 590.23163694 -430 563 C-431.02649658 562.29593018 -431.02649658 562.29593018 -432.07373047 561.57763672 C-440.63102706 555.67873361 -448.98659061 549.62568824 -457 543 C-458.24716797 542.01193359 -458.24716797 542.01193359 -459.51953125 541.00390625 C-475.45053754 528.29175628 -491.17617155 513.76988351 -503.8125 497.7421875 C-505.75392506 495.30847251 -507.76940311 492.96387488 -509.82446289 490.6262207 C-552.36645885 441.82065306 -577.90376666 376.87090924 -586.1875 313.125 C-586.35451416 311.84214111 -586.52152832 310.55928223 -586.69360352 309.23754883 C-588.49905302 294.80417411 -589.20587724 280.52822916 -589.1875 266 C-589.18722809 265.18707489 -589.18695618 264.37414978 -589.18667603 263.53659058 C-589.1668233 250.58832631 -588.62737698 237.85577588 -587 225 C-586.7916572 223.20963652 -586.58332411 221.41927191 -586.375 219.62890625 C-579.52141425 163.28110062 -558.07871435 108.97345979 -525.25 62.6875 C-524.73977295 61.96747803 -524.2295459 61.24745605 -523.70385742 60.50561523 C-516.72769749 50.73597833 -509.41589292 41.30067147 -501.265625 32.4765625 C-499.4079748 30.44595866 -497.60758511 28.38597326 -495.8125 26.30078125 C-491.64794841 21.53080046 -487.22854265 17.03655738 -482.75 12.5625 C-481.90880615 11.72211182 -481.0676123 10.88172363 -480.20092773 10.01586914 C-474.38880216 4.26088447 -468.45819316 -0.98140407 -462 -6 C-460.05892989 -7.64162128 -458.12160231 -9.2876752 -456.1875 -10.9375 C-449.7119905 -16.33653949 -442.93687575 -21.21465861 -436 -26 C-435.40848145 -26.4125 -434.81696289 -26.825 -434.20751953 -27.25 C-424.9088957 -33.71685058 -415.29654751 -39.39535395 -405.31933594 -44.75 C-403.02935866 -45.98417723 -400.75264913 -47.24042763 -398.4765625 -48.5 C-370.13807484 -64.01299656 -339.07421411 -74.61805447 -307.55322266 -81.44335938 C-305.40871463 -81.91089411 -303.27165776 -82.41242545 -301.13671875 -82.921875 C-297.44079575 -83.75740085 -293.74424165 -84.43100607 -290 -85 C-288.6687207 -85.20302734 -288.6687207 -85.20302734 -287.31054688 -85.41015625 C-190.22030435 -99.37906995 -88.25316535 -72.09009475 0 0 Z " fill="#00575C" transform="translate(1257,148)"/>
<path d="M0 0 C2.53215697 0.34522148 5.06772931 0.64424788 7.60595703 0.94140625 C76.78816022 9.33327574 143.40851629 39.87639722 195.32080078 86.31640625 C196.06434814 86.97382813 196.80789551 87.63125 197.57397461 88.30859375 C203.87285978 93.9136439 209.91969064 99.73217789 215.88330078 105.69140625 C217.20491211 106.99464844 217.20491211 106.99464844 218.55322266 108.32421875 C224.58200492 114.33965316 230.02925496 120.64849055 235.32080078 127.31640625 C236.47533393 128.73447244 237.63142177 130.15127526 238.78955078 131.56640625 C239.80049758 132.81597754 240.8109305 134.06596478 241.82080078 135.31640625 C242.34416016 135.95707031 242.86751953 136.59773437 243.40673828 137.2578125 C245.55295097 139.92111789 247.22990236 142.04371098 248.32080078 145.31640625 C247.61499023 147.03613281 247.61499023 147.03613281 246.43408203 148.95703125 C245.77762695 150.04963257 245.77762695 150.04963257 245.10791016 151.16430664 C244.62128906 151.95699951 244.13466797 152.74969238 243.63330078 153.56640625 C222.78540463 188.65114998 207.0341531 226.37308399 198.32080078 266.31640625 C198.10085449 267.30543945 197.8809082 268.29447266 197.65429688 269.31347656 C188.58613602 310.76222352 186.68747631 353.14486837 191.32080078 395.31640625 C191.44438965 396.45867676 191.56797852 397.60094727 191.6953125 398.77783203 C197.59760285 451.14009032 214.24447451 513.77834499 246.75830078 556.5546875 C248.32080078 559.31640625 248.32080078 559.31640625 247.95751953 561.703125 C245.62724938 565.42377113 242.94426123 568.76188843 240.13330078 572.12890625 C239.54323242 572.84449707 238.95316406 573.56008789 238.34521484 574.29736328 C234.41832844 579.04406573 230.43825016 583.73376427 226.32080078 588.31640625 C225.74330078 588.98542969 225.16580078 589.65445313 224.57080078 590.34375 C213.22615973 603.3058887 200.98239493 615.80445917 187.32080078 626.31640625 C186.1853517 627.23764524 185.05273182 628.16237793 183.92236328 629.08984375 C167.99749968 642.119856 151.23722747 653.20197744 133.32080078 663.31640625 C132.52448242 663.76757812 131.72816406 664.21875 130.90771484 664.68359375 C104.35304653 679.58039025 74.28549278 691.47626902 44.43457031 697.86132812 C41.92139615 698.40239496 39.41690617 698.97856356 36.91064453 699.55078125 C22.47886158 702.77117499 8.03759697 704.90930492 -6.67919922 706.31640625 C-7.65219971 706.41284424 -8.6252002 706.50928223 -9.62768555 706.60864258 C-19.41060226 707.47870003 -29.1780871 707.51733007 -38.99169922 707.50390625 C-40.32053131 707.50250137 -40.32053131 707.50250137 -41.6762085 707.50106812 C-121.45490828 707.31866237 -199.96455002 680.34362893 -261.67919922 629.31640625 C-262.92636719 628.32833984 -262.92636719 628.32833984 -264.19873047 627.3203125 C-280.12973676 614.60816253 -295.85537077 600.08628976 -308.49169922 584.05859375 C-310.43312428 581.62487876 -312.44860233 579.28028113 -314.50366211 576.94262695 C-345.29842886 541.61386446 -365.8397687 497.72758522 -379.67919922 453.31640625 C-379.9109082 452.57680664 -380.14261719 451.83720703 -380.38134766 451.07519531 C-389.96774203 419.97924058 -393.89623776 386.84961281 -393.80957031 354.38598633 C-393.8042288 352.01702407 -393.80954256 349.6482533 -393.81591797 347.27929688 C-393.82586564 331.46148081 -392.93760508 316.05805405 -390.36669922 300.44140625 C-390.25493347 299.74885742 -390.14316772 299.05630859 -390.02801514 298.34277344 C-381.34448036 244.54096847 -361.56201948 193.60374744 -329.92919922 149.00390625 C-329.41897217 148.28388428 -328.90874512 147.5638623 -328.38305664 146.82202148 C-321.40689671 137.05238458 -314.09509214 127.61707772 -305.94482422 118.79296875 C-304.08717402 116.76236491 -302.28678432 114.70237951 -300.49169922 112.6171875 C-296.32714763 107.84720671 -291.90774187 103.35296363 -287.42919922 98.87890625 C-286.58800537 98.03851807 -285.74681152 97.19812988 -284.88012695 96.33227539 C-279.06800138 90.57729072 -273.13739238 85.33500218 -266.67919922 80.31640625 C-264.73812911 78.67478497 -262.80080153 77.02873105 -260.86669922 75.37890625 C-254.39118972 69.97986676 -247.61607496 65.10174764 -240.67919922 60.31640625 C-240.08768066 59.90390625 -239.49616211 59.49140625 -238.88671875 59.06640625 C-229.58809492 52.59955567 -219.97574673 46.9210523 -209.99853516 41.56640625 C-207.70855788 40.33222902 -205.43184835 39.07597862 -203.15576172 37.81640625 C-174.03690665 21.87622257 -142.09360897 11.16914326 -109.67919922 4.31640625 C-108.51864014 4.06383057 -107.35808105 3.81125488 -106.16235352 3.55102539 C-97.26580509 1.67785437 -88.42121638 0.41526533 -79.36669922 -0.37109375 C-78.65985992 -0.43396576 -77.95302063 -0.49683777 -77.22476196 -0.56161499 C-51.84514365 -2.75551233 -25.28556581 -3.47477225 0 0 Z " fill="#1DB2E5" transform="translate(446.67919921875,62.68359375)"/>
<path d="M0 0 C2.56391624 0.47187257 5.13115557 0.91100501 7.70214844 1.34228516 C67.16361329 11.75809185 125.02261933 42.48281879 169.77246094 82.51025391 C170.51020752 83.161875 171.2479541 83.81349609 172.00805664 84.48486328 C178.4912346 90.24996166 184.69893109 96.25350004 190.83496094 102.38525391 C191.76373047 103.30177734 192.6925 104.21830078 193.64941406 105.16259766 C199.79749038 111.29773066 205.40179009 117.68746675 210.77246094 124.51025391 C211.33118896 125.20973145 211.88991699 125.90920898 212.46557617 126.62988281 C237.44882971 158.07616954 257.63086648 193.50988515 270.77246094 231.51025391 C271.16288574 232.6273877 271.55331055 233.74452148 271.95556641 234.89550781 C275.05965392 243.96105648 277.62021843 253.08010652 279.89746094 262.38525391 C280.07054779 263.08834686 280.24363464 263.79143982 280.42196655 264.51583862 C282.94425867 274.78850736 285.43857679 285.00221105 286.77246094 295.51025391 C286.9711377 296.98631104 286.9711377 296.98631104 287.17382812 298.4921875 C289.38918228 315.53050118 290.06438288 332.40528306 290.08496094 349.57275391 C290.08845551 350.50172485 290.09195007 351.4306958 290.09555054 352.38781738 C290.13524663 371.38397233 288.65676624 390.10237695 285.39746094 408.82275391 C285.10355469 410.60649414 285.10355469 410.60649414 284.80371094 412.42626953 C282.1578694 428.00826666 278.26509198 442.98577233 273.20996094 457.94775391 C272.819375 459.11121841 272.819375 459.11121841 272.42089844 460.29818726 C260.26758171 496.37327626 243.68966546 530.611982 220.17480469 560.70654297 C218.8041482 562.46949738 217.45685032 564.24783969 216.11621094 566.03369141 C211.67915429 571.9246462 207.0818316 577.58147826 202.07324219 582.99853516 C200.21128834 585.03119445 198.40896465 587.09265471 196.61230469 589.18212891 C186.07621577 601.25135474 174.49384128 612.76029087 161.77246094 622.51025391 C160.63815254 623.42999094 159.5068544 624.35344788 158.37792969 625.27978516 C142.45302444 638.31252759 125.6903189 649.39501709 107.77246094 659.51025391 C106.97614258 659.96142578 106.17982422 660.41259766 105.359375 660.87744141 C78.80470669 675.77423791 48.73715293 687.67011667 18.88623047 694.05517578 C16.3730563 694.59624262 13.86856632 695.17241121 11.36230469 695.74462891 C-3.06951117 698.96502999 -17.51073581 701.10297253 -32.22753906 702.51025391 C-33.19183838 702.6059668 -34.1561377 702.70167969 -35.1496582 702.80029297 C-45.18650162 703.69331037 -55.22089323 703.75260506 -65.29003906 703.76025391 C-66.21450836 703.76126099 -67.13897766 703.76226807 -68.09146118 703.76330566 C-83.98032883 703.75165731 -99.49427941 702.88215249 -115.22753906 700.51025391 C-116.23220215 700.36040039 -117.23686523 700.21054687 -118.27197266 700.05615234 C-124.95662691 699.03075838 -131.59290972 697.81776485 -138.22753906 696.51025391 C-139.08347656 696.3486377 -139.93941406 696.18702148 -140.82128906 696.02050781 C-193.68152284 685.89769247 -244.53535877 660.1937668 -286.22753906 626.51025391 C-287.02546875 625.88505859 -287.82339844 625.25986328 -288.64550781 624.61572266 C-304.95947312 611.62720375 -321.06074249 596.68839901 -334.00097656 580.30712891 C-337.04276354 576.48621754 -340.22698881 572.79170377 -343.42358398 569.09985352 C-351.23330698 559.97338327 -351.23330698 559.97338327 -351.21582031 555.53759766 C-350.07045466 552.0290665 -348.40872477 549.14326147 -346.41503906 546.07275391 C-309.61697084 486.85919916 -291.94857258 416.47918104 -292.04003906 347.07275391 C-292.04031097 346.28889313 -292.04058289 345.50503235 -292.04086304 344.69741821 C-292.06223535 331.21388411 -292.70211772 317.91438665 -294.22753906 304.51025391 C-294.32405762 303.59131348 -294.42057617 302.67237305 -294.52001953 301.72558594 C-300.61353943 244.24238098 -321.31622716 189.68490236 -351.22753906 140.51025391 C-348.28308632 134.9947912 -344.85753865 130.3010164 -340.85253906 125.51025391 C-340.23749512 124.7704126 -339.62245117 124.03057129 -338.98876953 123.26831055 C-332.67915651 115.74802948 -326.05893112 108.55709066 -319.22753906 101.51025391 C-318.24019775 100.4900415 -318.24019775 100.4900415 -317.23291016 99.44921875 C-310.08131778 92.09382892 -302.93336494 84.92023191 -294.85644531 78.57666016 C-291.9774003 76.31363666 -289.20179822 73.94829169 -286.41503906 71.57275391 C-279.93952957 66.17371442 -273.16441481 61.2955953 -266.22753906 56.51025391 C-265.63602051 56.09775391 -265.04450195 55.68525391 -264.43505859 55.26025391 C-255.13643477 48.79340332 -245.52408658 43.11489995 -235.546875 37.76025391 C-233.25689772 36.52607668 -230.9801882 35.26982628 -228.70410156 34.01025391 C-199.58681254 18.07092751 -167.64144711 7.35903258 -135.22753906 0.51025391 C-134.0619043 0.25767822 -132.89626953 0.00510254 -131.6953125 -0.25512695 C-122.94289071 -2.09209006 -114.25720293 -3.36525206 -105.35253906 -4.17724609 C-104.32338379 -4.27155411 -104.32338379 -4.27155411 -103.2734375 -4.36776733 C-68.85616346 -7.43004781 -33.97148938 -6.31616371 0 0 Z " fill="#A2C613" transform="translate(1704.2275390625,67.48974609375)"/>
<path d="M0 0 C5.29738122 3.03317796 9.70842664 6.9080744 13.5625 11.625 C15.70029286 14.51159999 15.70029286 14.51159999 18.8125 16.375 C18.8125 17.035 18.8125 17.695 18.8125 18.375 C28.72570418 20.93324624 36.17094975 18.78026174 45 14.25 C51.07502587 11.16539384 58.30937212 9.9590256 64.94921875 12.046875 C66.60030474 12.75687547 68.21184035 13.55764188 69.8125 14.375 C69.8125 15.035 69.8125 15.695 69.8125 16.375 C70.4725 16.375 71.1325 16.375 71.8125 16.375 C71.8125 17.035 71.8125 17.695 71.8125 18.375 C72.4725 18.375 73.1325 18.375 73.8125 18.375 C76.60478693 22.94419679 78.90964581 27.22949726 80.25 32.4375 C81.64041951 37.43676116 83.76240273 41.99550707 87.8125 45.375 C93.60473962 46.97913822 99.78120455 46.37534532 105.73632812 46.16015625 C114.62376327 46.0041119 120.56969424 49.25565262 127.5625 54.75 C132.05426219 60.58929085 130.93954308 68.03432413 130.734375 74.94335938 C130.59367358 82.69952542 131.44190773 89.34945746 136.8125 95.375 C143.91833452 99.55347363 151.98305302 101.92915182 159.8125 104.375 C159.8125 105.035 159.8125 105.695 159.8125 106.375 C160.41578125 106.63667969 161.0190625 106.89835937 161.640625 107.16796875 C165.47643271 109.29973958 167.23084366 112.34613524 168.8125 116.375 C170.36487651 125.82478402 167.80090816 132.93702399 163.8125 141.375 C161.29352264 148.13043928 161.28264133 153.4176903 163.87109375 160.11328125 C166.98518665 166.49143753 170.66824009 170.43809346 176.4453125 174.5234375 C180.01158155 177.31289547 182.37634026 180.06652079 183.8125 184.375 C183.98491708 186.80862472 184.07915768 189.24820596 184.125 191.6875 C184.16238281 192.98300781 184.19976563 194.27851563 184.23828125 195.61328125 C183.44095491 202.65754974 179.05403828 206.2757346 173.875 210.625 C168.71269291 215.17514801 164.74360774 219.58079777 162.8125 226.375 C162.58505113 229.79637778 162.58505113 229.79637778 163.8125 233.375 C164.24369141 234.89673828 164.24369141 234.89673828 164.68359375 236.44921875 C166.71919741 243.40955327 166.71919741 243.40955327 169.5625 250.0625 C171.76021619 255.8864479 171.76010802 261.74229351 169.3125 267.5 C168.8175 268.44875 168.3225 269.3975 167.8125 270.375 C167.1525 270.375 166.4925 270.375 165.8125 270.375 C165.59851562 271.13425781 165.38453125 271.89351563 165.1640625 272.67578125 C162.62181555 277.75292761 156.8533056 279.29045633 151.8125 281.375 C149.13036329 282.24604761 146.58982171 282.82945466 143.8125 283.375 C142.47752414 283.70169304 141.1437471 284.03343002 139.8125 284.375 C139.8125 285.035 139.8125 285.695 139.8125 286.375 C138.8225 286.375 137.8325 286.375 136.8125 286.375 C134.10091024 294.69736354 132.73408664 302.00554152 133 310.75 C133.0519328 318.2023574 131.67910335 324.434894 126.375 329.875 C119.4441229 333.93209879 113.66061113 333.5052246 105.82421875 333.20898438 C98.36521422 333.05336486 91.93336287 333.93258558 85.9375 338.625 C82.94515442 342.49744723 81.46342119 346.44781848 79.91796875 351.0234375 C76.86037477 359.91604151 73.96222203 366.14388898 65.265625 370.4921875 C57.87661565 373.15128959 51.59840135 371.3293686 44.6484375 368.25 C44.04257813 367.96125 43.43671875 367.6725 42.8125 367.375 C42.8125 366.715 42.8125 366.055 42.8125 365.375 C36.56846175 363.49000732 30.29372606 361.94258715 23.8125 363.375 C17.74538675 367.00689952 13.01119474 372.14206392 8.125 377.1875 C2.88883133 382.49794056 -1.61780508 385.49362606 -9.1875 385.875 C-19.42910192 385.3146692 -24.84074111 379.10188237 -31.55078125 372.0546875 C-34.08763666 369.29421708 -34.08763666 369.29421708 -37.1875 367.375 C-37.1875 366.715 -37.1875 366.055 -37.1875 365.375 C-43.45950385 362.57620258 -49.58513333 362.13444989 -56.13671875 364.390625 C-59.94006886 366.11328835 -63.52980127 367.96036384 -67.0625 370.1875 C-72.40343024 372.21705349 -77.57386757 372.28931618 -83.1875 371.375 C-90.69180608 367.94697146 -94.36045575 361.85025558 -97.1875 354.375 C-97.86582118 352.27456143 -98.53237637 350.17028909 -99.1875 348.0625 C-101.0985149 342.07618826 -103.62043134 339.28384593 -108.625 335.5625 C-112.99537346 333.53720498 -116.24202687 334.11417983 -120.8125 335.375 C-127.30815062 337.11133738 -134.22017093 337.34612588 -140.625 335.25 C-145.82989924 331.44153714 -149.41665884 326.59468349 -151.1875 320.375 C-151.53165531 316.22216312 -151.26009783 312.08989248 -151.0703125 307.93359375 C-150.87035114 300.67944001 -151.80951133 294.34748584 -156.4375 288.5625 C-161.66046077 284.40787211 -165.77430919 282.37208992 -172.25 280.9375 C-179.56150064 279.21446556 -182.98107977 276.6245841 -187 270.1875 C-189.48346287 265.22057427 -190.97034794 260.95833059 -190.1875 255.375 C-188.75306661 251.09991107 -186.82234788 247.0603974 -184.8515625 243.01171875 C-181.91332386 236.59035685 -180.94144507 229.8725947 -182.84765625 222.9921875 C-185.65314665 216.35714937 -190.27536073 212.08718198 -195.64135742 207.48510742 C-200.09076565 203.66183092 -201.98434381 201.73636092 -202.48828125 195.87890625 C-202.49214844 194.57824219 -202.49601563 193.27757812 -202.5 191.9375 C-202.51675781 190.63941406 -202.53351562 189.34132813 -202.55078125 188.00390625 C-201.92407825 181.74361496 -198.65288542 178.54269306 -194.1875 174.375 C-193.19943359 173.570625 -193.19943359 173.570625 -192.19140625 172.75 C-186.21531974 167.83754723 -183.54690181 163.46905982 -182.25 155.75 C-181.66704069 148.27440412 -184.304687 140.88594598 -187.8046875 134.359375 C-190.21938208 129.14800026 -190.27534006 122.75105534 -188.5078125 117.265625 C-187.6875 115.625 -187.6875 115.625 -186.1875 113.375 C-185.5275 113.375 -184.8675 113.375 -184.1875 113.375 C-183.97609375 112.61574219 -183.7646875 111.85648437 -183.546875 111.07421875 C-181.76566488 107.53739061 -179.99495558 106.83791161 -176.4375 105.1875 C-175.41140625 104.69894531 -174.3853125 104.21039063 -173.328125 103.70703125 C-170.31653534 102.42972768 -167.29501876 101.39091959 -164.1875 100.375 C-161.42811362 99.26387304 -159.68820097 98.15434492 -157.1875 96.375 C-154.50379722 89.73088147 -155.08934621 83.16112193 -155.35351562 76.11328125 C-155.51309426 68.48652312 -153.97276943 63.39284427 -149.4375 57.125 C-148.76460937 56.15820312 -148.76460937 56.15820312 -148.078125 55.171875 C-141.59309346 49.00841527 -133.16265972 49.83613356 -124.75 49.6875 C-123.44611328 49.65333984 -122.14222656 49.61917969 -120.79882812 49.58398438 C-117.59513802 49.50183847 -114.39171021 49.4325759 -111.1875 49.375 C-111.1875 48.715 -111.1875 48.055 -111.1875 47.375 C-109.5375 46.715 -107.8875 46.055 -106.1875 45.375 C-106.1875 44.385 -106.1875 43.395 -106.1875 42.375 C-105.5275 42.375 -104.8675 42.375 -104.1875 42.375 C-104.1875 41.385 -104.1875 40.395 -104.1875 39.375 C-103.5275 39.375 -102.8675 39.375 -102.1875 39.375 C-102.07921875 38.7046875 -101.9709375 38.034375 -101.859375 37.34375 C-101.03883584 33.71811186 -99.79082523 30.32666282 -98.4375 26.875 C-98.19773437 26.22402344 -97.95796875 25.57304687 -97.7109375 24.90234375 C-95.45319615 19.14161194 -92.39167282 15.58105682 -86.875 12.5625 C-77.45881524 9.53016931 -70.29074554 12.63363326 -61.61328125 16.53125 C-53.282346 20.19319956 -46.02133114 19.91131846 -37.1875 18.375 C-36.8575 17.385 -36.5275 16.395 -36.1875 15.375 C-34.71260363 14.12953196 -33.23344374 12.8881572 -31.71875 11.69140625 C-30.00442968 10.31504122 -30.00442968 10.31504122 -28.375 7.9375 C-21.31856547 -0.32860902 -10.35123013 -4.87235637 0 0 Z " fill="#FFFFFF" transform="translate(1033.1875,223.625)"/>
<path d="M0 0 C0.86416534 -0.0033284 1.72833069 -0.0066568 2.61868286 -0.01008606 C4.44256053 -0.01513667 6.26644738 -0.01749496 8.09033203 -0.01733398 C10.8663674 -0.01951831 13.64200371 -0.03768786 16.41796875 -0.05664062 C18.19531115 -0.05957545 19.97265543 -0.06155965 21.75 -0.0625 C22.5731369 -0.06968552 23.3962738 -0.07687103 24.24435425 -0.08427429 C30.38502577 -0.06018163 35.66959624 0.37352371 40.6953125 4.23046875 C47.34534339 12.67780529 49.25100834 23.76223342 51.91992188 33.95117188 C55.01240046 45.90159046 55.01240046 45.90159046 63.3203125 54.48828125 C64.53811507 55.11252883 65.76799699 55.71367121 67.0078125 56.29296875 C67.6584668 56.61789307 68.30912109 56.94281738 68.97949219 57.27758789 C70.97782802 58.26633266 72.98956982 59.22062026 75.0078125 60.16796875 C75.64009766 60.47041504 76.27238281 60.77286133 76.92382812 61.08447266 C88.85535186 67.12055905 88.85535186 67.12055905 101.77441406 66.30712891 C104.92408759 65.09528096 108.02904932 63.80541103 111.1328125 62.48046875 C113.36405384 61.56251401 115.59582145 60.64583737 117.828125 59.73046875 C119.88804868 58.87636924 121.94794719 58.02220902 124.0078125 57.16796875 C140.06044767 50.54914094 140.06044767 50.54914094 147.0078125 53.16796875 C152.80940619 57.32646929 157.43403696 62.70384108 161.8828125 68.23046875 C162.47924561 68.96346191 163.07567871 69.69645508 163.69018555 70.45166016 C167.53403123 75.21924465 171.24694097 80.06950815 174.8203125 85.04296875 C175.23458496 85.61926025 175.64885742 86.19555176 176.07568359 86.78930664 C179.52160325 91.69232005 180.58035028 95.1563221 180.0078125 101.16796875 C177.79014438 107.92064357 173.45033314 113.40137026 169.1953125 118.98046875 C157.86965618 132.59894707 157.86965618 132.59894707 154.4140625 149.30078125 C155.19630613 154.39565752 156.12541952 159.43823806 157.1953125 164.48046875 C157.39084717 165.41173584 157.58638184 166.34300293 157.7878418 167.30249023 C159.47197784 174.50631289 161.78913443 180.54233092 167.63671875 185.3125 C168.60480469 185.86292969 169.57289063 186.41335938 170.5703125 186.98046875 C171.69824219 187.63402344 172.82617188 188.28757812 173.98828125 188.9609375 C177.00111037 190.62890509 180.03033984 192.26648936 183.05859375 193.90625 C183.93765381 194.38408936 184.81671387 194.86192871 185.72241211 195.35424805 C187.45599714 196.2917553 189.19489713 197.2195206 190.93969727 198.13598633 C204.23441956 205.2564201 204.23441956 205.2564201 207.0078125 212.16796875 C208.40912668 220.55703019 205.7185534 229.31571615 203.80957031 237.43652344 C203.25813819 239.79157782 202.72958718 242.15097215 202.203125 244.51171875 C198.20719678 262.05061996 198.20719678 262.05061996 192.5703125 267.54296875 C181.80442964 272.45372234 168.36390492 271.73243809 156.74023438 272.203125 C148.47388277 272.64813936 142.37616471 273.32045853 135.9765625 278.95703125 C135.491875 279.56289063 135.0071875 280.16875 134.5078125 280.79296875 C133.94320313 281.48648437 133.37859375 282.18 132.796875 282.89453125 C131.91128906 284.01988281 131.91128906 284.01988281 131.0078125 285.16796875 C130.33492187 285.98007812 129.66203125 286.7921875 128.96875 287.62890625 C121.23010663 297.04860323 116.52861113 303.25085099 117.484375 315.67578125 C118.04382234 321.09869082 119.08340763 326.43480585 120.0703125 331.79296875 C123.61830547 351.38681134 123.61830547 351.38681134 120.5703125 358.54296875 C113.77495208 365.50406967 104.78447348 369.43582967 96.10351562 373.54711914 C94.11254499 374.4900677 92.12628202 375.44240396 90.140625 376.39648438 C75.47791289 383.41245127 75.47791289 383.41245127 67.0078125 382.16796875 C57.53302521 378.01010093 49.84543119 366.46157409 43.1953125 358.79296875 C35.8331202 349.69102367 35.8331202 349.69102367 25.34423828 345.87744141 C23.88069796 345.85080483 22.41690121 345.83638673 20.953125 345.83203125 C20.17395721 345.82537445 19.39478943 345.81871765 18.5920105 345.81185913 C16.94629266 345.80175134 15.300534 345.79704153 13.65478516 345.79736328 C11.14806927 345.79299533 8.64312272 345.75667358 6.13671875 345.71875 C4.53386015 345.71288019 2.93099324 345.7089119 1.328125 345.70703125 C0.21221481 345.6854747 0.21221481 345.6854747 -0.92623901 345.66348267 C-7.44873005 345.72021936 -10.84050618 348.21249948 -15.51953125 352.46484375 C-20.52580654 357.56037192 -25.34435178 362.74549375 -29.9921875 368.16796875 C-41.51697315 381.55944503 -41.51697315 381.55944503 -46.98876953 382.51757812 C-55.2721591 382.94227807 -61.65297332 379.63409974 -68.9296875 376.04296875 C-70.13916273 375.46574503 -71.34944723 374.89021387 -72.56054688 374.31640625 C-96.05041723 363.0515093 -96.05041723 363.0515093 -99.9921875 355.16796875 C-100.78885034 346.2904193 -99.08970494 337.67460894 -97.4921875 328.98046875 C-94.03775332 311.91009397 -94.03775332 311.91009397 -99.9921875 296.16796875 C-101.88790857 293.81219822 -103.87071254 291.60173167 -105.9453125 289.40234375 C-108.00740547 287.15135677 -109.80450941 284.8098028 -111.6171875 282.35546875 C-115.14378448 277.74190694 -118.40482133 275.03042414 -123.9921875 273.16796875 C-126.84201431 272.91157787 -129.68042635 272.69889286 -132.53515625 272.51953125 C-134.26630951 272.40022415 -135.99742831 272.28041636 -137.72851562 272.16015625 C-140.44900096 271.97508589 -143.16955731 271.79361095 -145.89086914 271.62109375 C-148.52316683 271.45236594 -151.15404766 271.26827979 -153.78515625 271.08203125 C-154.5875322 271.03503082 -155.38990814 270.9880304 -156.21659851 270.93960571 C-162.70495371 270.46292546 -168.57844183 269.52407866 -173.36425781 264.85253906 C-178.57118305 256.26595389 -180.08793842 245.12308069 -182.2421875 235.41796875 C-182.5103125 234.26425781 -182.7784375 233.11054688 -183.0546875 231.921875 C-186.3083707 217.36330271 -186.3083707 217.36330271 -183.9921875 209.98046875 C-178.03544298 201.60379677 -167.3905438 197.37911434 -158.54101562 192.62426758 C-145.56697182 186.08607781 -145.56697182 186.08607781 -137.9375 174.36328125 C-131.88901982 155.55918612 -131.88901982 155.55918612 -134.5546875 136.890625 C-136.78750139 133.1371365 -139.37874343 129.66172178 -141.9921875 126.16796875 C-143.70964926 123.82122738 -145.42057922 121.46989729 -147.12817383 119.1159668 C-148.26220113 117.56036091 -149.40615224 116.01192677 -150.5612793 114.47192383 C-155.25609574 108.13175107 -159.00152193 102.38683481 -157.9921875 94.16796875 C-155.60327852 87.83611708 -151.59675208 82.88095819 -147.2421875 77.79296875 C-145.98498031 76.30006565 -144.72846587 74.8065789 -143.47265625 73.3125 C-142.87114746 72.6004541 -142.26963867 71.8884082 -141.64990234 71.15478516 C-139.55534869 68.64440553 -137.5530649 66.06775894 -135.5546875 63.48046875 C-127.33973936 53.28140179 -127.33973936 53.28140179 -120.9296875 51.98046875 C-113.19998193 51.67179498 -106.03432656 55.49166597 -99.04394531 58.390625 C-96.8566118 59.29755204 -94.66742257 60.20001419 -92.4765625 61.09838867 C-90.27011168 62.00614435 -88.0693136 62.92778781 -85.875 63.86450195 C-78.86366207 66.76270422 -73.65511482 68.5002337 -66.1484375 66.35546875 C-63.08234185 64.98474364 -60.02685301 63.60762235 -56.9921875 62.16796875 C-56.32461426 61.8519873 -55.65704102 61.53600586 -54.96923828 61.21044922 C-52.82466893 60.18807828 -50.68818859 59.15072799 -48.5546875 58.10546875 C-47.88050781 57.77740234 -47.20632813 57.44933594 -46.51171875 57.11132812 C-38.66710756 53.18117792 -34.92168932 49.49540383 -31.9921875 41.16796875 C-30.17312157 35.28186374 -28.59104471 29.33363865 -26.9921875 23.38476562 C-22.55616664 7.29552591 -22.55616664 7.29552591 -17.0546875 2.73046875 C-11.48577162 -0.11081486 -6.12051115 0.00823401 0 0 Z " fill="#FFFFFF" transform="translate(396.9921875,231.83203125)"/>
<path d="M0 0 C5.29738122 3.03317796 9.70842664 6.9080744 13.5625 11.625 C15.70029286 14.51159999 15.70029286 14.51159999 18.8125 16.375 C18.8125 17.035 18.8125 17.695 18.8125 18.375 C28.72570418 20.93324624 36.17094975 18.78026174 45 14.25 C51.07502587 11.16539384 58.30937212 9.9590256 64.94921875 12.046875 C66.60030474 12.75687547 68.21184035 13.55764188 69.8125 14.375 C69.8125 15.035 69.8125 15.695 69.8125 16.375 C70.4725 16.375 71.1325 16.375 71.8125 16.375 C71.8125 17.035 71.8125 17.695 71.8125 18.375 C72.4725 18.375 73.1325 18.375 73.8125 18.375 C76.60478693 22.94419679 78.90964581 27.22949726 80.25 32.4375 C81.64041951 37.43676116 83.76240273 41.99550707 87.8125 45.375 C93.60473962 46.97913822 99.78120455 46.37534532 105.73632812 46.16015625 C114.62376327 46.0041119 120.56969424 49.25565262 127.5625 54.75 C132.05426219 60.58929085 130.93954308 68.03432413 130.734375 74.94335938 C130.59367358 82.69952542 131.44190773 89.34945746 136.8125 95.375 C143.91833452 99.55347363 151.98305302 101.92915182 159.8125 104.375 C159.8125 105.035 159.8125 105.695 159.8125 106.375 C160.41578125 106.63667969 161.0190625 106.89835937 161.640625 107.16796875 C165.47643271 109.29973958 167.23084366 112.34613524 168.8125 116.375 C170.36487651 125.82478402 167.80090816 132.93702399 163.8125 141.375 C161.29352264 148.13043928 161.28264133 153.4176903 163.87109375 160.11328125 C166.98518665 166.49143753 170.66824009 170.43809346 176.4453125 174.5234375 C180.01158155 177.31289547 182.37634026 180.06652079 183.8125 184.375 C183.98491708 186.80862472 184.07915768 189.24820596 184.125 191.6875 C184.16238281 192.98300781 184.19976563 194.27851563 184.23828125 195.61328125 C183.44095491 202.65754974 179.05403828 206.2757346 173.875 210.625 C168.71269291 215.17514801 164.74360774 219.58079777 162.8125 226.375 C162.58505113 229.79637778 162.58505113 229.79637778 163.8125 233.375 C164.24369141 234.89673828 164.24369141 234.89673828 164.68359375 236.44921875 C166.71919741 243.40955327 166.71919741 243.40955327 169.5625 250.0625 C171.76021619 255.8864479 171.76010802 261.74229351 169.3125 267.5 C168.8175 268.44875 168.3225 269.3975 167.8125 270.375 C167.1525 270.375 166.4925 270.375 165.8125 270.375 C165.59851562 271.13425781 165.38453125 271.89351563 165.1640625 272.67578125 C162.62181555 277.75292761 156.8533056 279.29045633 151.8125 281.375 C149.13036329 282.24604761 146.58982171 282.82945466 143.8125 283.375 C142.47752414 283.70169304 141.1437471 284.03343002 139.8125 284.375 C139.8125 285.035 139.8125 285.695 139.8125 286.375 C138.8225 286.375 137.8325 286.375 136.8125 286.375 C134.10091024 294.69736354 132.73408664 302.00554152 133 310.75 C133.0519328 318.2023574 131.67910335 324.434894 126.375 329.875 C119.4441229 333.93209879 113.66061113 333.5052246 105.82421875 333.20898438 C98.36521422 333.05336486 91.93336287 333.93258558 85.9375 338.625 C82.94515442 342.49744723 81.46342119 346.44781848 79.91796875 351.0234375 C76.86037477 359.91604151 73.96222203 366.14388898 65.265625 370.4921875 C57.87661565 373.15128959 51.59840135 371.3293686 44.6484375 368.25 C44.04257813 367.96125 43.43671875 367.6725 42.8125 367.375 C42.8125 366.715 42.8125 366.055 42.8125 365.375 C36.56846175 363.49000732 30.29372606 361.94258715 23.8125 363.375 C17.74538675 367.00689952 13.01119474 372.14206392 8.125 377.1875 C2.88883133 382.49794056 -1.61780508 385.49362606 -9.1875 385.875 C-19.42910192 385.3146692 -24.84074111 379.10188237 -31.55078125 372.0546875 C-34.08763666 369.29421708 -34.08763666 369.29421708 -37.1875 367.375 C-37.1875 366.715 -37.1875 366.055 -37.1875 365.375 C-43.45950385 362.57620258 -49.58513333 362.13444989 -56.13671875 364.390625 C-59.94006886 366.11328835 -63.52980127 367.96036384 -67.0625 370.1875 C-72.40343024 372.21705349 -77.57386757 372.28931618 -83.1875 371.375 C-90.69180608 367.94697146 -94.36045575 361.85025558 -97.1875 354.375 C-97.86582118 352.27456143 -98.53237637 350.17028909 -99.1875 348.0625 C-101.0985149 342.07618826 -103.62043134 339.28384593 -108.625 335.5625 C-112.99537346 333.53720498 -116.24202687 334.11417983 -120.8125 335.375 C-127.30815062 337.11133738 -134.22017093 337.34612588 -140.625 335.25 C-145.82989924 331.44153714 -149.41665884 326.59468349 -151.1875 320.375 C-151.53165531 316.22216312 -151.26009783 312.08989248 -151.0703125 307.93359375 C-150.87035114 300.67944001 -151.80951133 294.34748584 -156.4375 288.5625 C-161.66046077 284.40787211 -165.77430919 282.37208992 -172.25 280.9375 C-179.56150064 279.21446556 -182.98107977 276.6245841 -187 270.1875 C-189.48346287 265.22057427 -190.97034794 260.95833059 -190.1875 255.375 C-188.75306661 251.09991107 -186.82234788 247.0603974 -184.8515625 243.01171875 C-181.91332386 236.59035685 -180.94144507 229.8725947 -182.84765625 222.9921875 C-185.65314665 216.35714937 -190.27536073 212.08718198 -195.64135742 207.48510742 C-200.09076565 203.66183092 -201.98434381 201.73636092 -202.48828125 195.87890625 C-202.49214844 194.57824219 -202.49601563 193.27757812 -202.5 191.9375 C-202.51675781 190.63941406 -202.53351562 189.34132813 -202.55078125 188.00390625 C-201.92407825 181.74361496 -198.65288542 178.54269306 -194.1875 174.375 C-193.19943359 173.570625 -193.19943359 173.570625 -192.19140625 172.75 C-186.21531974 167.83754723 -183.54690181 163.46905982 -182.25 155.75 C-181.66704069 148.27440412 -184.304687 140.88594598 -187.8046875 134.359375 C-190.21938208 129.14800026 -190.27534006 122.75105534 -188.5078125 117.265625 C-187.6875 115.625 -187.6875 115.625 -186.1875 113.375 C-185.5275 113.375 -184.8675 113.375 -184.1875 113.375 C-183.97609375 112.61574219 -183.7646875 111.85648437 -183.546875 111.07421875 C-181.76566488 107.53739061 -179.99495558 106.83791161 -176.4375 105.1875 C-175.41140625 104.69894531 -174.3853125 104.21039063 -173.328125 103.70703125 C-170.31653534 102.42972768 -167.29501876 101.39091959 -164.1875 100.375 C-161.42811362 99.26387304 -159.68820097 98.15434492 -157.1875 96.375 C-154.50379722 89.73088147 -155.08934621 83.16112193 -155.35351562 76.11328125 C-155.51309426 68.48652312 -153.97276943 63.39284427 -149.4375 57.125 C-148.76460937 56.15820312 -148.76460937 56.15820312 -148.078125 55.171875 C-141.59309346 49.00841527 -133.16265972 49.83613356 -124.75 49.6875 C-123.44611328 49.65333984 -122.14222656 49.61917969 -120.79882812 49.58398438 C-117.59513802 49.50183847 -114.39171021 49.4325759 -111.1875 49.375 C-111.1875 48.715 -111.1875 48.055 -111.1875 47.375 C-109.5375 46.715 -107.8875 46.055 -106.1875 45.375 C-106.1875 44.385 -106.1875 43.395 -106.1875 42.375 C-105.5275 42.375 -104.8675 42.375 -104.1875 42.375 C-104.1875 41.385 -104.1875 40.395 -104.1875 39.375 C-103.5275 39.375 -102.8675 39.375 -102.1875 39.375 C-102.07921875 38.7046875 -101.9709375 38.034375 -101.859375 37.34375 C-101.03883584 33.71811186 -99.79082523 30.32666282 -98.4375 26.875 C-98.19773437 26.22402344 -97.95796875 25.57304687 -97.7109375 24.90234375 C-95.45319615 19.14161194 -92.39167282 15.58105682 -86.875 12.5625 C-77.45881524 9.53016931 -70.29074554 12.63363326 -61.61328125 16.53125 C-53.282346 20.19319956 -46.02133114 19.91131846 -37.1875 18.375 C-36.8575 17.385 -36.5275 16.395 -36.1875 15.375 C-34.71260363 14.12953196 -33.23344374 12.8881572 -31.71875 11.69140625 C-30.00442968 10.31504122 -30.00442968 10.31504122 -28.375 7.9375 C-21.31856547 -0.32860902 -10.35123013 -4.87235637 0 0 Z M-103.1875 68.375 C-104.03828125 68.97828125 -104.8890625 69.5815625 -105.765625 70.203125 C-108.56409818 72.18181196 -108.56409818 72.18181196 -111.1875 74.375 C-111.1875 75.035 -111.1875 75.695 -111.1875 76.375 C-111.74953125 76.6121875 -112.3115625 76.849375 -112.890625 77.09375 C-115.70644042 78.66447697 -117.66705416 80.58971464 -119.9375 82.875 C-120.73671875 83.6690625 -121.5359375 84.463125 -122.359375 85.28125 C-124.40673609 87.16283462 -124.40673609 87.16283462 -124.1875 89.375 C-124.8475 89.375 -125.5075 89.375 -126.1875 89.375 C-127.80306646 91.21350852 -129.28350522 93.04680341 -130.75 95 C-131.4160022 95.88353149 -131.4160022 95.88353149 -132.09545898 96.78491211 C-143.51063313 112.11270061 -151.948349 128.23696196 -157.5625 146.5625 C-157.78897217 147.2961377 -158.01544434 148.02977539 -158.2487793 148.78564453 C-162.2185756 162.57923213 -163.74988977 176.26568909 -163.625 190.5625 C-163.62162628 191.32024719 -163.61825256 192.07799438 -163.61477661 192.85870361 C-163.53251139 205.68837692 -162.55209295 217.94010626 -159.1875 230.375 C-158.95675781 231.23657715 -158.72601562 232.0981543 -158.48828125 232.98583984 C-151.27481368 258.88657758 -137.49210525 281.07039475 -118.57421875 299.98828125 C-117.17298106 301.38951894 -115.78739442 302.80732885 -114.44140625 304.26171875 C-96.66938219 323.182973 -70.05023169 335.24564601 -45.1875 341.375 C-43.9190625 341.69597656 -42.650625 342.01695312 -41.34375 342.34765625 C-30.88991564 344.66327285 -20.28225058 344.68964409 -9.625 344.75 C-8.89081848 344.75794586 -8.15663696 344.76589172 -7.40020752 344.77407837 C7.03667319 344.89395255 20.92277662 342.98249016 34.75 338.6875 C35.5757251 338.43403809 36.4014502 338.18057617 37.25219727 337.91943359 C61.2986045 330.27466181 81.79681728 316.97638904 99.8125 299.375 C101.15248047 298.07369141 101.15248047 298.07369141 102.51953125 296.74609375 C131.24899025 267.17536216 144.51808168 226.67701471 144.02734375 186.0234375 C142.86451267 144.11818336 123.80641704 105.95863303 93.9296875 77.14453125 C70.87419273 55.6025619 40.81588136 42.7573345 9.8125 38.375 C8.96171875 38.24351562 8.1109375 38.11203125 7.234375 37.9765625 C-32.12437605 32.8846961 -71.59071463 45.15747263 -103.1875 68.375 Z " fill="#FFFFFF" transform="translate(1033.1875,223.625)"/>
<path d="M0 0 C3.46492805 2.8721085 6.74658374 5.89217551 10 9 C10.61488281 9.54011719 11.22976563 10.08023437 11.86328125 10.63671875 C25.8203683 23.37456601 35.29664996 45.07863958 36.90625 63.75 C36.9371875 64.4925 36.968125 65.235 37 66 C37.0515625 67.134375 37.103125 68.26875 37.15625 69.4375 C37.88636049 93.66141476 30.34850087 116.77402112 14 135 C13.18789063 135.90621094 12.37578125 136.81242188 11.5390625 137.74609375 C-5.66329208 155.93216069 -29.50352594 165.49010746 -54.4375 166.25 C-55.9597566 166.19887944 -57.48090376 166.11056713 -59 166 C-60.1446875 165.92007813 -61.289375 165.84015625 -62.46875 165.7578125 C-83.14623972 163.76333022 -101.43006133 155.84583984 -117 142 C-117.74636719 141.34773437 -118.49273437 140.69546875 -119.26171875 140.0234375 C-136.27651887 124.16671278 -145.90308842 101.03514323 -147 78 C-147.51728243 51.69996652 -138.29792911 27.61300237 -120.0625 8.625 C-87.11856736 -22.68196704 -36.92698787 -27.5523346 0 0 Z " fill="#1DB2E5" transform="translate(463,353)"/>
<path d="M0 0 C1.2065625 0.56074219 1.2065625 0.56074219 2.4375 1.1328125 C9.42134914 4.69551932 16.64604024 9.70020523 20 17 C20.6875 19.3125 20.6875 19.3125 21 21 C21.66 21 22.32 21 23 21 C23.62867668 22.37332284 24.25273891 23.74875833 24.875 25.125 C25.22304687 25.89070313 25.57109375 26.65640625 25.9296875 27.4453125 C26.45949219 28.70988281 26.45949219 28.70988281 27 30 C27.34575577 30.80497421 27.69151154 31.60994843 28.04774475 32.4393158 C29.39667432 37.48324935 29.30320586 42.32542422 29.30639648 47.52563477 C29.31472 48.67915436 29.32304352 49.83267395 29.33161926 51.02114868 C29.35568373 54.82793566 29.3644855 58.63455133 29.37109375 62.44140625 C29.38006002 65.08886263 29.38918186 67.73631848 29.39845276 70.3837738 C29.41579242 75.92927693 29.42267473 81.47473642 29.42553711 87.02026367 C29.42917725 93.42568514 29.45911617 99.83062893 29.50094169 106.23590428 C29.53982254 112.40717021 29.55112964 118.57820346 29.55226326 124.74958611 C29.55647464 127.37189266 29.56894536 129.9941993 29.58978081 132.61642647 C29.61657777 136.27929777 29.6119041 139.94084114 29.59936523 143.60375977 C29.62161667 145.23176262 29.62161667 145.23176262 29.64431763 146.89265442 C29.57247249 154.24731401 29.57247249 154.24731401 26.65785217 158.07945251 C23.81855098 160.13111393 20.93406595 162.08647873 18 164 C17.2575 164.7734375 17.2575 164.7734375 16.5 165.5625 C5.46489459 176.13780935 -17.92339787 178.50697373 -32.3828125 178.2890625 C-41.30214371 177.91569515 -50.45452389 175.84201676 -58 171 C-60.19130534 170.30420546 -60.19130534 170.30420546 -62 170 C-62 169.34 -62 168.68 -62 168 C-62.7425 167.7525 -63.485 167.505 -64.25 167.25 C-68.58427982 165.27987281 -71.32734098 162.44610797 -73 158 C-73.18098862 155.15254668 -73.25265897 152.40557575 -73.22705078 149.55957031 C-73.22734283 148.71042557 -73.22763489 147.86128082 -73.22793579 146.98640442 C-73.22654398 144.18354017 -73.21098976 141.38094273 -73.1953125 138.578125 C-73.19158184 136.63328191 -73.18873512 134.68843695 -73.18673706 132.74359131 C-73.17910477 127.62749025 -73.1594597 122.51150293 -73.1373291 117.39544678 C-73.116862 112.17380309 -73.10773349 106.952141 -73.09765625 101.73046875 C-73.07621348 91.48692922 -73.04208235 81.24347407 -73 71 C-73.66 71 -74.32 71 -75 71 C-75 71.66 -75 72.32 -75 73 C-81.8861899 78.46523008 -89.89278735 82.69370657 -98 86 C-99.48693359 86.62455078 -99.48693359 86.62455078 -101.00390625 87.26171875 C-108.05620868 90.22351604 -113.61093427 92.2143492 -121.3125 92.3125 C-122.43301758 92.35600586 -122.43301758 92.35600586 -123.57617188 92.40039062 C-128.83575356 92.46042097 -131.87166349 91.55228956 -136 88 C-136.33 87.01 -136.66 86.02 -137 85 C-137.66 85 -138.32 85 -139 85 C-139 84.34 -139 83.68 -139 83 C-139.66 83 -140.32 83 -141 83 C-143.64408266 76.88555884 -144.19237409 70.07168652 -142.3125 63.65234375 C-140.19191394 58.925204 -137.66951553 56.42814808 -133 54 C-128.50613383 52.31884143 -124.0276869 51.40651328 -119.3125 50.625 C-107.71525663 48.84979162 -107.71525663 48.84979162 -97.99609375 42.98046875 C-95.78703708 40.7887041 -94.2489975 40.17681725 -91.3125 39.25 C-86.11705114 37.34115361 -82.73772971 34.45049264 -78.8125 30.609375 C-77 29 -77 29 -75 29 C-74.34 27.68 -73.68 26.36 -73 25 C-72.34 25 -71.68 25 -71 25 C-71 24.34 -71 23.68 -71 23 C-70.21625 22.7525 -69.4325 22.505 -68.625 22.25 C-65.67682892 20.84610901 -65.0975223 19.99324263 -64 17 C-63.34 17 -62.68 17 -62 17 C-61.86271484 15.87271484 -61.86271484 15.87271484 -61.72265625 14.72265625 C-60.34921277 9.54811514 -55.52626462 6.55341737 -51.11328125 3.83984375 C-49.10932975 2.80215817 -47.06471356 1.91036753 -45 1 C-44.19691406 0.55398438 -43.39382813 0.10796875 -42.56640625 -0.3515625 C-29.84035866 -6.81386752 -12.75719237 -6.0995326 0 0 Z " fill="#FEFEFE" transform="translate(1777,386)"/>
<path d="M0 0 C1.45779442 0.66784428 2.91607802 1.3346225 4.375 2 C11.56710837 5.75175962 16.54311725 11.28830379 21 18 C21 18.66 21 19.32 21 20 C22.65 20.66 24.3 21.32 26 22 C26 22.66 26 23.32 26 24 C26.61875 24.2475 27.2375 24.495 27.875 24.75 C30.35068687 26.20628639 30.95125002 27.37812506 32 30 C32.66 30 33.32 30 34 30 C34 30.66 34 31.32 34 32 C34.556875 32.0825 35.11375 32.165 35.6875 32.25 C38.68542629 33.22230042 40.55170629 35.04136503 43 37 C45.18214568 37.77833534 45.18214568 37.77833534 47 38 C47 38.66 47 39.32 47 40 C48.32 40 49.64 40 51 40 C51 40.66 51 41.32 51 42 C60.89025112 47.103914 71.12781078 49.19933629 82 51 C80 56 80 56 79.1484375 58.03515625 C75.86333922 66.64609569 75.90152366 75.31688244 79.05078125 83.96484375 C80.19769693 86.42386873 81.56971137 88.69631382 83 91 C71.38439524 91.90121071 62.50040344 89.99772593 52 85 C51.34 84.34 50.68 83.68 50 83 C48.35731547 82.29599234 46.71343006 81.59460434 45.0625 80.91015625 C38.62233785 78.06819076 33.35358165 74.51372337 28 70 C28.00888245 71.07661896 28.01776489 72.15323792 28.0269165 73.26248169 C28.10804656 83.41469324 28.1679867 93.5668389 28.20724869 103.71930122 C28.22811239 108.9386561 28.25640807 114.15774901 28.30175781 119.37695312 C28.34525859 124.41496222 28.36914626 129.45271952 28.37950897 134.49090195 C28.38689271 136.41183307 28.40131152 138.3327506 28.42292023 140.25357437 C28.45201048 142.94685765 28.45595366 145.63910411 28.45410156 148.33251953 C28.46848267 149.12446213 28.48286377 149.91640472 28.49768066 150.73234558 C28.4589443 155.94738787 27.39096528 158.82892535 24 163 C21.54286385 165.32292283 18.82823943 167.15298649 16 169 C15.43925781 169.37125 14.87851563 169.7425 14.30078125 170.125 C-0.94217384 178.89398091 -20.5480439 178.88030022 -37.09741211 174.70507812 C-42.59744687 173.21415535 -47.83455148 171.39653896 -53 169 C-53.64582031 168.72800781 -54.29164062 168.45601562 -54.95703125 168.17578125 C-61.05731801 165.430031 -70.95655672 160.08688655 -74 154 C-74.10504515 152.45020872 -74.14816416 150.89602483 -74.16062927 149.34272766 C-74.1706749 148.3603714 -74.18072052 147.37801514 -74.19107056 146.3658905 C-74.19690155 145.28390884 -74.20273254 144.20192719 -74.20874023 143.0871582 C-74.21852402 141.95028564 -74.2283078 140.81341309 -74.23838806 139.64208984 C-74.26841225 135.8616656 -74.28975656 132.08127722 -74.30859375 128.30078125 C-74.31516558 127.00846273 -74.3217374 125.71614422 -74.32850838 124.38466454 C-74.35442062 118.94508575 -74.377905 113.50552015 -74.39300442 108.06589985 C-74.41482107 100.29893337 -74.45657394 92.53266622 -74.52644199 84.76597911 C-74.57974658 78.62894764 -74.59952843 72.4921881 -74.60820198 66.35494041 C-74.61672393 63.7576171 -74.63546045 61.16030508 -74.6649456 58.56313515 C-74.95752085 31.30599817 -74.95752085 31.30599817 -68 20 C-67.34 19.67 -66.68 19.34 -66 19 C-64.97862543 17.34634594 -63.98387706 15.67623498 -63 14 C-56.80161669 3.98194875 -47.72463952 -0.30907807 -36.79296875 -4.1171875 C-24.37682495 -7.00704177 -11.17286162 -6.22104935 0 0 Z " fill="#FEFEFE" transform="translate(1546,387)"/>
<path d="M0 0 C1.67449219 0.81597656 1.67449219 0.81597656 3.3828125 1.6484375 C16.82304832 8.54667902 28.17975463 17.5575565 39 28 C39.84046875 28.77730469 40.6809375 29.55460937 41.546875 30.35546875 C68.68975275 56.15849107 84.00184323 94.62556744 85.203125 131.796875 C85.62242907 158.20772355 80.58601706 183.21537187 69 207 C68.55269531 207.93457031 68.10539062 208.86914062 67.64453125 209.83203125 C60.38143828 224.03872629 50.29144697 236.80071306 39 248 C38.51031738 248.48694336 38.02063477 248.97388672 37.51611328 249.47558594 C20.25683844 266.42188349 -0.90504988 278.16635924 -23.9375 285.25 C-24.68644531 285.48404541 -25.43539063 285.71809082 -26.20703125 285.95922852 C-40.1742556 290.06092498 -53.94726568 291.53355431 -68.4375 291.375 C-69.20136017 291.37034729 -69.96522034 291.36569458 -70.75222778 291.36090088 C-82.06430344 291.28027648 -93.00962983 290.85582708 -104 288 C-104.76666992 287.81195801 -105.53333984 287.62391602 -106.32324219 287.43017578 C-130.15312023 281.46083407 -151.43234693 270.0035486 -170 254 C-170.72960937 253.39285156 -171.45921875 252.78570313 -172.2109375 252.16015625 C-176.97041621 248.13921734 -181.00250153 243.76750842 -185 239 C-185.7734375 238.12601563 -186.546875 237.25203125 -187.34375 236.3515625 C-203.0647479 218.25300627 -213.23930073 196.15801105 -219 173 C-219.17789063 172.31808594 -219.35578125 171.63617188 -219.5390625 170.93359375 C-222.29561144 159.92927538 -222.30630359 148.71575582 -222.375 137.4375 C-222.38705475 136.33581985 -222.38705475 136.33581985 -222.39935303 135.21188354 C-222.51949529 120.71896429 -220.58744728 106.81047012 -216.25 92.9375 C-215.99250977 92.10371826 -215.73501953 91.26993652 -215.46972656 90.41088867 C-209.76152716 72.4519888 -201.20181022 55.39351679 -188.8125 41.1015625 C-186.86409884 38.92979046 -186.86409884 38.92979046 -185 36 C-184.34 36 -183.68 36 -183 36 C-182.7628125 35.43796875 -182.525625 34.8759375 -182.28125 34.296875 C-180.71052303 31.48105958 -178.78528536 29.52044584 -176.5 27.25 C-175.7059375 26.45078125 -174.911875 25.6515625 -174.09375 24.828125 C-172 23 -172 23 -170 23 C-170 22.34 -170 21.68 -170 21 C-147.71780954 1.81424472 -119.15228253 -11.03307548 -90 -15 C-89.2059375 -15.11085938 -88.411875 -15.22171875 -87.59375 -15.3359375 C-57.49675964 -18.77293949 -27.12794161 -13.33407299 0 0 Z M-155 34 C-155 34.66 -155 35.32 -155 36 C-155.54527344 36.22300781 -156.09054687 36.44601562 -156.65234375 36.67578125 C-177.77265421 48.58890146 -191.67957956 78.83352545 -198 101 C-198.31324219 102.06565186 -198.31324219 102.06565186 -198.6328125 103.15283203 C-204.86727473 125.3236451 -204.32948621 151.93781389 -198 174 C-197.81808105 174.66547852 -197.63616211 175.33095703 -197.44873047 176.01660156 C-192.11306576 195.15633181 -181.81600483 211.99148641 -169 227 C-168.32066406 227.8146875 -167.64132812 228.629375 -166.94140625 229.46875 C-164.56125356 232.31908858 -164.56125356 232.31908858 -162 235 C-161.34 235 -160.68 235 -160 235 C-160 235.66 -160 236.32 -160 237 C-157.97690583 238.80167607 -155.95335509 240.47279711 -153.8125 242.125 C-153.17610596 242.61782471 -152.53971191 243.11064941 -151.8840332 243.6184082 C-122.36931273 266.13211554 -86.83004691 275.73129372 -49.91796875 271.5 C-45.55877133 270.88728568 -41.28235394 270.01274626 -37 269 C-36.31744141 268.8443457 -35.63488281 268.68869141 -34.93164062 268.52832031 C-2.23318762 260.80828028 27.81450477 238.91393474 45.70947266 210.49072266 C64.16698565 180.40856433 71.73233469 143.57439425 63.83447266 108.80810547 C63.26233083 106.52579371 62.64345019 104.26316962 62 102 C61.79101074 101.23977539 61.58202148 100.47955078 61.36669922 99.69628906 C55.24343295 77.96442719 43.53890236 59.25300633 28 43 C27.401875 42.33871094 26.80375 41.67742187 26.1875 40.99609375 C2.84941556 16.09878384 -31.46897954 4.7774743 -64.69921875 2.77734375 C-96.85382242 1.96375092 -130.51796856 12.77545299 -155 34 Z " fill="#00575C" transform="translate(1092,277)"/>
<path d="M0 0 C1.3391418 0.95019988 2.67324756 1.90757635 4 2.875 C4.99 3.535 5.98 4.195 7 4.875 C7 5.535 7 6.195 7 6.875 C7.66 6.875 8.32 6.875 9 6.875 C18.3496524 17.69388349 20.1211959 29.88387844 19.22314453 43.65869141 C17.95815081 56.22281938 10.76885308 65.1036894 1.46875 73.08203125 C-8.94187182 80.64291007 -20.46369477 81.98792308 -33 80.875 C-45.23396205 78.41414556 -54.65159602 71.85471021 -62 61.875 C-68.79907217 50.58923047 -70.93274898 38.40696657 -68.3125 25.484375 C-66.27805682 18.87243467 -63.29847087 13.28207893 -59 7.875 C-58.52175781 7.26011719 -58.04351563 6.64523437 -57.55078125 6.01171875 C-43.1299274 -10.37066182 -17.44296329 -11.38676644 0 0 Z " fill="#FFFFFF" transform="translate(1781,287.125)"/>
<path d="M0 0 C1.3391418 0.95019988 2.67324756 1.90757635 4 2.875 C4.99 3.535 5.98 4.195 7 4.875 C7 5.535 7 6.195 7 6.875 C7.66 6.875 8.32 6.875 9 6.875 C18.3496524 17.69388349 20.1211959 29.88387844 19.22314453 43.65869141 C17.95815081 56.22281938 10.76885308 65.1036894 1.46875 73.08203125 C-8.94187182 80.64291007 -20.46369477 81.98792308 -33 80.875 C-45.23396205 78.41414556 -54.65159602 71.85471021 -62 61.875 C-68.79907217 50.58923047 -70.93274898 38.40696657 -68.3125 25.484375 C-66.27805682 18.87243467 -63.29847087 13.28207893 -59 7.875 C-58.52175781 7.26011719 -58.04351563 6.64523437 -57.55078125 6.01171875 C-43.1299274 -10.37066182 -17.44296329 -11.38676644 0 0 Z " fill="#FFFFFF" transform="translate(1550,287.125)"/>
<path d="M0 0 C3.32188258 1.55840874 5.20339278 3.10340475 7.5625 5.9375 C9.6269098 8.39732014 11.69358543 10.76368922 14 13 C12.37641304 17.09620634 9.43319604 19.83447899 6.35693359 22.87011719 C5.78118088 23.44616196 5.20542816 24.02220673 4.61222839 24.6157074 C2.71233463 26.51421037 0.80546009 28.40553522 -1.1015625 30.296875 C-2.42193434 31.61351582 -3.74186464 32.93059957 -5.06137085 34.24810791 C-8.53234276 37.71145037 -12.0092793 41.16874418 -15.48748779 44.62481689 C-19.03694385 48.1537998 -22.58073201 51.6884642 -26.125 55.22265625 C-33.07779463 62.15401308 -40.03690309 69.07899377 -47 76 C-49.99943905 74.65427113 -52.08076179 73.16462899 -54.39160156 70.83544922 C-55.35214447 69.87467972 -55.35214447 69.87467972 -56.33209229 68.89450073 C-57.01140808 68.20486237 -57.69072388 67.515224 -58.390625 66.8046875 C-59.09523865 66.09724396 -59.79985229 65.38980042 -60.52581787 64.66091919 C-62.7719539 62.40360138 -65.01103009 60.13942367 -67.25 57.875 C-68.77297717 56.34199047 -70.29640939 54.80943285 -71.8203125 53.27734375 C-75.55216815 49.52345427 -79.27825351 45.76391086 -83 42 C-81.23800109 38.23636632 -79.03798466 35.67395757 -76.125 32.6875 C-75.26132812 31.78386719 -74.39765625 30.88023437 -73.5078125 29.94921875 C-71 28 -71 28 -69.11376953 28.12597656 C-66.33137736 29.27646905 -64.77672627 30.88520103 -62.671875 33.03515625 C-61.87265625 33.84404297 -61.0734375 34.65292969 -60.25 35.48632812 C-59.0125 36.7615332 -59.0125 36.7615332 -57.75 38.0625 C-56.48929688 39.34350586 -56.48929688 39.34350586 -55.203125 40.65039062 C-53.12852403 42.76035412 -51.06124168 44.87699708 -49 47 C-45.4252101 45.4819272 -43.14188276 43.38425289 -40.41503906 40.64208984 C-39.51440735 39.74130707 -38.61377563 38.84052429 -37.68585205 37.91244507 C-36.71233519 36.92871592 -35.73892875 35.9448775 -34.765625 34.9609375 C-33.76286839 33.95444872 -32.75966778 32.94840211 -31.75604248 31.94277954 C-29.12126187 29.30037853 -26.49254389 26.65202572 -23.86505127 24.00238037 C-21.18060312 21.29743948 -18.49045378 18.59818179 -15.80078125 15.8984375 C-10.52826382 10.60449826 -5.26213943 5.30425717 0 0 Z " fill="#00575C" transform="translate(1066,377)"/>
</svg>
